<svg width="145" height="133" viewBox="0 0 145 133" fill="none" xmlns="http://www.w3.org/2000/svg">
<path d="M107.345 113.002C107.343 113.002 107.344 113 107.345 113C161.508 112.99 162.646 7.62939e-06 74.9908 7.62939e-06C53.9153 7.62939e-06 36.0206 9.02057 24.0461 23.2137C3.2233 47.8945 5.65169 88.8852 29.5671 110.583C41.0221 120.976 56.3097 126 74.9908 126C114.329 126 149.467 126 107.345 113.002Z" fill="#98D4FF"/>
<path d="M98.1399 123.824L98.1338 123.822C96.0207 123.167 95.2444 121.205 95.3248 119.776C95.3674 119.02 95.6413 118.1 96.3582 117.311C97.1401 116.45 98.2264 116.001 99.3161 116H99.3187C111.25 115.998 120.268 109.858 126.011 100.282C131.821 90.594 134.21 77.4187 132.362 64.0438C130.52 50.7077 124.505 37.4676 113.891 27.582C103.326 17.7423 87.9652 11 66.9656 11C47.0858 11 30.3037 19.4875 19.0781 32.793C-0.378951 55.8551 1.93467 94.393 24.2295 114.62C34.7744 124.187 49.0147 129 66.9656 129C76.8145 129 86.3326 129 94.4407 128.798C100.763 128.641 106.049 128.363 109.903 127.904C107.089 126.746 103.226 125.394 98.1399 123.824ZM114.944 130.545C114.946 130.545 114.935 130.532 114.909 130.507C114.93 130.532 114.943 130.545 114.944 130.545Z" stroke="#333333" stroke-width="8"/>
<line x1="34.601" y1="59" x2="74.7431" y2="59" stroke="#333333" stroke-width="5" stroke-linecap="round"/>
<line x1="86.7694" y1="58.5" x2="101.833" y2="58.5" stroke="#333333" stroke-width="5" stroke-linecap="round"/>
<line x1="34.6052" y1="77.5" x2="49.6684" y2="77.5" stroke="#333333" stroke-width="5" stroke-linecap="round"/>
<line x1="61.6905" y1="77.5" x2="101.833" y2="77.5" stroke="#333333" stroke-width="5" stroke-linecap="round"/>
</svg>
