<svg width="37" height="40" viewBox="0 0 37 40" fill="none" xmlns="http://www.w3.org/2000/svg">
<path d="M27.2621 0.00847006C27.1324 -0.0103495 26.9852 0.00141272 26.8255 0.0515982C24.6968 0.453082 22.3576 1.65753 20.8675 3.06273C19.5903 4.26718 18.5267 6.27459 18.5267 8.08127C18.5267 8.48275 18.9491 8.88502 19.3749 8.88502C21.7165 8.68428 24.059 7.47904 25.5491 6.07385C26.8263 4.46792 27.8899 2.66203 27.8899 0.855349C27.8899 0.40368 27.6512 0.0649287 27.2621 0.00847006ZM27.8899 8.68506C24.0581 8.68506 22.3576 10.8924 19.8031 10.8924C17.0358 10.8924 14.4813 8.88502 11.2881 8.88502C6.81778 8.88502 0.00411835 12.8991 0.00411835 22.1332C-0.208756 30.5644 7.88132 40 12.5646 40C15.3319 40 15.9714 38.3925 19.8031 38.3925C23.6349 38.3925 24.4864 40 27.2538 40C30.4469 40 32.7885 36.7873 34.7044 34.1777C35.5559 32.7725 36.1945 31.9711 36.8331 30.7667C37.2589 29.9637 36.8323 29.1607 35.9808 28.7592C30.446 26.1496 29.3833 17.7184 35.5567 14.7073C36.6211 14.1051 36.8323 12.8983 35.9808 12.2961C33.6392 10.2886 30.2315 8.68506 27.8899 8.68506Z" fill="black"/>
</svg>
