<svg width="40" height="40" viewBox="0 0 40 40" fill="none" xmlns="http://www.w3.org/2000/svg">
<path d="M19.3317 0.0108476C9.23953 0.342516 0.747393 8.54578 0.0493823 18.6707C-0.688629 29.3826 6.93349 38.4341 17.0116 39.9558V25.4287H13.7836C12.3316 25.4287 11.1556 24.2468 11.1556 22.7874C11.1556 21.3281 12.3316 20.1461 13.7836 20.1461H17.0096V16.6304C17.0096 10.8092 19.8317 8.25431 24.6458 8.25431C25.3598 8.25431 25.9698 8.27039 26.4878 8.29653C27.7598 8.35884 28.7458 9.4242 28.7458 10.7046C28.7458 12.0373 27.6718 13.1168 26.3458 13.1168H25.4618C23.4177 13.1168 22.7037 15.0646 22.7037 17.2596V20.1481H26.4438C27.6258 20.1481 28.5298 21.2075 28.3498 22.3814L28.1338 23.7905C27.9878 24.7352 27.1798 25.4327 26.2278 25.4327H22.7037V40C32.4699 38.6673 40 30.2771 40 20.1019C40 8.77694 30.6819 -0.359013 19.3317 0.0108476Z" fill="black"/>
</svg>
