<svg width="40" height="40" viewBox="0 0 40 40" fill="none" xmlns="http://www.w3.org/2000/svg">
<path d="M20.9083 20.2517C20.9083 22.0083 22.3333 23.4333 24.09 23.4333H29.9833C28.9717 26.72 26.4817 29.2117 22.8833 29.8767C17.165 30.935 11.4467 26.7683 10.9 20.9783C10.3333 14.9867 15.0317 9.94499 20.9083 9.94499C22.5783 9.94499 24.1517 10.355 25.5367 11.0767C26.7983 11.735 28.3417 11.47 29.3467 10.4633C30.9367 8.87332 30.515 6.19166 28.5167 5.16499C25.72 3.72832 22.465 3.05832 19.03 3.43499C11.3917 4.27166 5.17999 10.4783 4.34332 18.1167C3.24166 28.1667 11.0817 36.6667 20.9083 36.6667C31.5217 36.6667 35.8617 29.1417 36.74 22.67C37.1433 19.7033 34.77 17.0833 31.7767 17.08L24.0933 17.07C22.335 17.0667 20.9083 18.4917 20.9083 20.2517Z" fill="black"/>
</svg>
