<svg width="150" height="150" viewBox="0 0 150 150" fill="none" xmlns="http://www.w3.org/2000/svg">
<path d="M84.5 130C120.399 130 149.5 100.899 149.5 65C149.5 29.1005 120.399 0 84.5 0C48.6005 0 19.5 29.1005 19.5 65C19.5 100.899 48.6005 130 84.5 130Z" fill="#98D4FF"/>
<path d="M75.75 79.875C75.252 79.8124 74.748 79.8124 74.25 79.875C68.9497 79.6966 63.9262 77.4649 60.2409 73.6513C56.5556 69.8376 54.497 64.7408 54.5 59.4375C54.5 48.125 63.625 38.9375 75 38.9375C80.3715 38.9282 85.5315 41.0301 89.3677 44.79C93.2038 48.55 95.4087 53.6668 95.5071 59.0374C95.6055 64.408 93.5895 69.6022 89.8936 73.5001C86.1978 77.3981 81.1182 79.6876 75.75 79.875V79.875ZM117.125 121.125C105.639 131.682 90.6002 137.528 75 137.5C58.75 137.5 44 131.312 32.875 121.125C33.5 115.25 37.25 109.5 43.9375 105C61.0625 93.625 89.0625 93.625 106.062 105C112.75 109.5 116.5 115.25 117.125 121.125V121.125Z" stroke="#333333" stroke-width="7" stroke-linecap="round" stroke-linejoin="round"/>
<path d="M75 137.5C109.519 137.5 137.5 109.519 137.5 75C137.5 40.4813 109.519 12.5 75 12.5C40.4813 12.5 12.5 40.4813 12.5 75C12.5 109.519 40.4813 137.5 75 137.5Z" stroke="#333333" stroke-width="7" stroke-linecap="round" stroke-linejoin="round"/>
</svg>
